<svg xmlns="http://www.w3.org/2000/svg" width="29" height="26" viewBox="0 0 29 26">
  <metadata><?xpacket begin="﻿" id="W5M0MpCehiHzreSzNTczkc9d"?>
<x:xmpmeta xmlns:x="adobe:ns:meta/" x:xmptk="Adobe XMP Core 5.6-c138 79.159824, 2016/09/14-01:09:01        ">
   <rdf:RDF xmlns:rdf="http://www.w3.org/1999/02/22-rdf-syntax-ns#">
      <rdf:Description rdf:about=""/>
   </rdf:RDF>
</x:xmpmeta>
                                                                                                    
                                                                                                    
                                                                                                    
                                                                                                    
                                                                                                    
                                                                                                    
                                                                                                    
                                                                                                    
                                                                                                    
                                                                                                    
                                                                                                    
                                                                                                    
                                                                                                    
                                                                                                    
                                                                                                    
                                                                                                    
                                                                                                    
                                                                                                    
                                                                                                    
                                                                                                    
                           
<?xpacket end="w"?></metadata>
<defs>
    <style>
      .cls-1 {
        fill: #fff;
        fill-rule: evenodd;
      }
    </style>
  </defs>
  <path id="Shape_127_copy" data-name="Shape 127 copy" class="cls-1" d="M353.993,160a1.21,1.21,0,0,1-.724-0.3l-6.947-6.608a1.1,1.1,0,0,1-.041-1.521,1.067,1.067,0,0,1,1.489-.042l5.171,4.909V142.076a1.053,1.053,0,1,1,2.105,0v14.357l5.17-4.909a1.065,1.065,0,0,1,1.448,1.563l-6.947,6.608A0.924,0.924,0,0,1,353.993,160Zm-14.107-1.058a1,1,0,0,0-.891,1.02V166a1,1,0,0,0,1,1h27a1,1,0,0,0,1-1V159.96a1,1,0,1,0-2-.029v5.062H341V159.96a1,1,0,0,0-.978-1.025A0.743,0.743,0,0,0,339.886,158.94Z" transform="translate(-339 -141)"/>
</svg>
